<?xml version="1.0" standalone="no"?><!DOCTYPE svg PUBLIC "-//W3C//DTD SVG 1.1//EN" "http://www.w3.org/Graphics/SVG/1.1/DTD/svg11.dtd"><svg t="1687358518291" class="icon" viewBox="0 0 1028 1024" version="1.1" xmlns="http://www.w3.org/2000/svg" p-id="24235" xmlns:xlink="http://www.w3.org/1999/xlink" width="200.78125" height="200"><path d="M206.403131 295.867867h613.854936v645.602943H206.403131z m0 0" fill="#BCA98A" p-id="24236"></path><path d="M106.504016 228.392078l353.229902-142.873049 182.566575 23.812509L920.798434 289.980368v36.651585H105.862763v-36.651585z m0 0" fill="#E0CFAF" p-id="24237"></path><path d="M946.943499 300.743389L513.338614 122.222716 79.725714 300.743389c-12.508431 5.150059-26.81838-0.813589-31.968438-13.322019l-20.007076-48.580885c-5.144047-12.508431 0.821605-26.816376 13.322019-31.968438L495.491757 19.78865a46.881566 46.881566 0 0 1 35.685699 0l454.419538 187.085401c12.500415 5.150059 18.466067 19.458004 13.314004 31.968438l-19.999061 48.578881c-5.150059 12.508431-19.458004 18.472078-31.968438 13.322019z m0 0M311.318043 796.251178l-94.025644 33.078607-94.027648-33.078607 15.107507-403.476039 78.920141-33.072595 78.918137 33.072595z m0 0" fill="#FFF5D7" p-id="24238"></path><path d="M178.167984 392.775139v403.476039H123.264751l15.107507-403.476039z m0 0" fill="#E0CFAF" p-id="24239"></path><path d="M296.218552 392.783155H138.364243l-15.099492-66.153206h188.053292z m0 0" fill="#FFF5D7" p-id="24240"></path><path d="M178.167984 392.775139H138.370254l-15.105503-66.14519h49.220134z m0 0" fill="#E0CFAF" p-id="24241"></path><path d="M336.697613 862.404384H97.887186l6.857393-66.153206h225.103656z m0 0" fill="#FFF5D7" p-id="24242"></path><path d="M178.167984 796.251178l-6.841362 66.151202H97.887186l6.863405-66.151202z m0 0" fill="#E0CFAF" p-id="24243"></path><path d="M607.029605 796.251178L513.001957 829.329785l-94.027648-33.078607 15.109511-403.476039L513.001957 359.702544l78.920141 33.072595z m0 0" fill="#FFF5D7" p-id="24244"></path><path d="M473.87153 392.775139v403.476039h-54.897221l15.109511-403.476039z m0 0" fill="#E0CFAF" p-id="24245"></path><path d="M591.930114 392.783155h-157.856314l-15.099491-66.153206h188.055296z m0 0" fill="#FFF5D7" p-id="24246"></path><path d="M473.87153 392.775139h-39.789714l-15.107507-66.14519h49.214122z m0 0" fill="#E0CFAF" p-id="24247"></path><path d="M632.40717 862.404384H393.596744l6.857393-66.153206h225.09564z m0 0" fill="#FFF5D7" p-id="24248"></path><path d="M473.879546 796.251178l-6.843366 66.151202h-73.439436l6.865409-66.151202z m0 0" fill="#E0CFAF" p-id="24249"></path><path d="M902.739162 796.251178l-94.027647 33.078607-94.025644-33.078607 15.107507-403.476039 78.918137-33.072595 78.920141 33.072595z m0 0" fill="#FFF5D7" p-id="24250"></path><path d="M769.583092 392.775139v403.476039h-54.897221l15.107507-403.476039z m0 0" fill="#E0CFAF" p-id="24251"></path><path d="M887.639671 392.783155H729.785362l-15.099491-66.153206h188.053291z m0 0" fill="#FFF5D7" p-id="24252"></path><path d="M769.583092 392.775139h-39.789714l-15.109511-66.14519h49.216125z m0 0" fill="#E0CFAF" p-id="24253"></path><path d="M928.116728 862.404384H689.306301l6.849378-66.153206H921.259335z m0 0" fill="#FFF5D7" p-id="24254"></path><path d="M769.589104 796.251178l-6.841362 66.151202H689.306301l6.865409-66.151202z m0 0" fill="#E0CFAF" p-id="24255"></path><path d="M969.447452 918.974873H56.556462v-33.401237c0-12.798998 10.370254-23.171256 23.169252-23.171256h866.552486c12.798998 0 23.161237 10.372258 23.161236 23.171256v33.401237z m0 0" fill="#E0CFAF" p-id="24256"></path><path d="M984.963757 1008.265268H41.040157c-14.25384 0-25.806403-11.552564-25.806404-25.806403v-37.675585c0-14.255843 11.552564-25.810411 25.806404-25.810411h943.9236c14.25384 0 25.806403 11.554568 25.806403 25.810411v37.673581c0 14.255843-11.552564 25.810411-25.806403 25.810411z m0 0" fill="#FFF5D7" p-id="24257"></path><path d="M570.881002 230.379961c0 31.782074-25.770333 57.550403-57.550403 57.550403-31.782074 0-57.550403-25.770333-57.550403-57.552407s25.770333-57.548399 57.552407-57.548399c31.778067 0 57.548399 25.770333 57.548399 57.550403z m0 0" fill="#3E4C56" p-id="24258"></path><path d="M984.963757 903.749135h-0.290567v-18.175499c0-21.175358-17.229652-38.39499-38.39499-38.39499h-4.430654l-5.440626-52.494529a15.225738 15.225738 0 0 0-15.147585-13.658677h-3.849519l-14.482286-386.809487 11.953347-52.36227h5.911546a15.229746 15.229746 0 0 0 15.229745-15.223734v-13.917182l5.12 2.10411a39.51117 39.51117 0 0 0 15.131554 3.021902 39.657456 39.657456 0 0 0 15.271828-3.076008 39.42901 39.42901 0 0 0 21.433863-21.542074l20.031123-48.602928c8.32025-20.259569-1.386708-43.504971-21.628242-51.821213L536.95474 5.691115c-15.217722-6.254215-32.000501-6.254215-47.256298 0.008016L248.064501 105.189448a15.22173 15.22173 0 0 0-8.290192 19.874818 15.229746 15.229746 0 0 0 19.882834 8.282176l241.619914-99.474285a31.962427 31.962427 0 0 1 24.09506-0.01002l454.427554 187.101432a9.268102 9.268102 0 0 1 5.047859 12.069574l-20.023107 48.602927a9.17993 9.17993 0 0 1-4.993754 5.017801 9.185941 9.185941 0 0 1-7.085839 0.008015L519.139945 108.149229a15.247781 15.247781 0 0 0-11.594646 0L73.910356 286.659883c-4.713205 1.947804-10.129785-0.320626-12.071577-5.033832l-20.007076-48.594912a9.185941 9.185941 0 0 1 0.016031-7.083836 9.193957 9.193957 0 0 1 5.025816-4.993753l156.437542-64.423828a15.22173 15.22173 0 0 0 8.282176-19.874818 15.22173 15.22173 0 0 0-19.874818-8.280172L35.28692 192.790544a39.433018 39.433018 0 0 0-21.55009 21.441879 39.408971 39.408971 0 0 0-0.060118 30.401377l19.999061 48.594912c8.352313 20.251554 31.607734 29.934466 51.835241 21.590169l5.126011-2.106114v13.917182a15.227742 15.227742 0 0 0 15.225738 15.225738h5.260274l11.953347 52.328203-14.482286 386.84155H104.744579a15.219726 15.219726 0 0 0-15.149589 13.658677l-5.438622 52.494529h-4.42865c-21.175358 0-38.396994 17.219632-38.396994 38.39499v18.175499h-0.296579C18.409957 903.749135 0 922.161096 0 944.785284v37.673581c0 22.632204 18.411961 41.034145 41.034145 41.034145h635.601409a15.229746 15.229746 0 0 0 15.229745-15.225738 15.229746 15.229746 0 0 0-15.229745-15.223734H41.032141a10.592689 10.592689 0 0 1-10.576658-10.582669v-37.675585a10.586677 10.586677 0 0 1 10.576658-10.576658h943.935624a10.586677 10.586677 0 0 1 10.576658 10.576658v37.673581a10.588681 10.588681 0 0 1-10.576658 10.584673H737.550528a15.227742 15.227742 0 0 0 0 30.449472H984.963757c22.6302 0 41.040157-18.401941 41.040157-41.032141v-37.675585c0-22.624188-18.409957-41.034145-41.040157-41.034145z m-338.827773-56.570489l-5.438622-52.494529a15.219726 15.219726 0 0 0-15.147585-13.658677h-3.851523l-14.472266-386.809487 11.943327-52.36227h83.366826l11.953346 52.370286-14.47427 386.801471h-3.859538a15.225738 15.225738 0 0 0-15.145581 13.658677l-5.432611 52.494529z m-66.347585-469.629245h-133.572884l-8.149918-35.693714h149.864704z m-131.043945 30.459491h128.515006l13.95726 373.016548H434.789198z m-34.559499 403.468024h197.636008l3.701229 35.70173H410.481722z m295.709558 0h197.636008l3.703232 35.70173h-205.040469z m20.602238-30.451476l13.957261-373.018552h128.51701l13.95726 373.018552z m144.995194-403.476039h-133.566873l-8.147913-35.693714h149.8627zM513.338614 138.7009l392.226067 161.471374v11.225926H121.096517v-11.225926z m-106.512031 203.154787l11.951343 52.368282-14.472267 386.801471h-3.859538a15.225738 15.225738 0 0 0-15.147585 13.658677l-5.438622 52.494529H350.424423l-5.440627-52.494529a15.225738 15.225738 0 0 0-15.145581-13.658677h-3.851522l-14.482286-386.849565 11.945331-52.322192z m-264.462528 0h149.854685l-8.147914 35.693714H150.511969z m10.668837 66.151201H281.549902l13.95726 373.018552H139.075632z m-34.559499 403.468024h197.636008l3.703233 35.703734H114.772164z m-46.685182 92.274223v-18.175499a7.947523 7.947523 0 0 1 7.937503-7.937503h866.552486a7.947523 7.947523 0 0 1 7.935499 7.935499v18.177503z m0 0" p-id="24259"></path><path d="M513.330599 303.154098c40.126372 0 72.774137-32.649769 72.774137-72.774137 0-40.134387-32.649769-72.776141-72.774137-72.776141-40.124368 0-72.774137 32.643757-72.774137 72.776141s32.649769 72.774137 72.774137 72.774137z m0-115.098803c23.335577 0 42.324665 18.989088 42.324665 42.322662 0 23.335577-18.989088 42.318654-42.322661 42.318654-23.335577 0-42.318654-18.983076-42.318654-42.31665 0-23.335577 18.983076-42.324665 42.31665-42.324666z m0 0" p-id="24260"></path></svg>