<?xml version="1.0" standalone="no"?><!DOCTYPE svg PUBLIC "-//W3C//DTD SVG 1.1//EN" "http://www.w3.org/Graphics/SVG/1.1/DTD/svg11.dtd"><svg t="1687358541942" class="icon" viewBox="0 0 1024 1024" version="1.1" xmlns="http://www.w3.org/2000/svg" p-id="25055" xmlns:xlink="http://www.w3.org/1999/xlink" width="200" height="200"><path d="M523.861716 282.924918m-281.09638 0a281.09638 281.09638 0 1 0 562.19276 0 281.09638 281.09638 0 1 0-562.19276 0Z" fill="#2EA2DB" p-id="25056"></path><path d="M974.256628 854.703527h-75.066505v153.326234h75.066505c17.56788 0 31.942537-14.374656 31.942537-31.942536V886.646064c0-17.569939-14.374656-31.942537-31.942537-31.942537z" fill="#F16051" p-id="25057"></path><path d="M974.256628 1024h-75.066505c-9.58379 0-15.972298-6.388507-15.972298-15.972298v-153.326234c0-9.58379 6.388507-15.972298 15.972298-15.972297h75.066505c27.151671 0 47.914834 20.763163 47.914834 47.914834v89.439102c0 27.15373-20.763163 47.916893-47.914834 47.916893z m-59.094207-31.942537h59.094207c9.58379 0 15.972298-6.388507 15.972298-15.972297V886.646064c0-9.58379-6.388507-15.972298-15.972298-15.972298h-59.094207v121.383697z" fill="#193651" p-id="25058"></path><path d="M162.907966 1008.027702v-153.324175L15.972298 931.365615z" fill="#FDBF5E" p-id="25059"></path><path d="M162.907966 1024c-3.195283 0-4.790866 0-7.986149-1.597642l-146.937727-76.662087C3.195283 942.544988 0 937.754122 0 931.365615s3.195283-11.179373 7.986149-14.374656l146.937727-76.662088c4.790866-3.195283 11.179373-1.597642 15.972297 0 4.790866 3.195283 7.986149 7.986149 7.986149 14.374656v153.326234c0 4.790866-3.195283 11.179373-7.986149 14.374656-1.5997 1.595583-4.792925 1.595583-7.988207 1.595583z m-111.799908-92.634385l97.425251 51.108058v-102.216117l-97.425251 51.108059z" fill="#193651" p-id="25060"></path><path d="M162.907966 854.703527h734.686574v153.326234H162.907966z" fill="#E1E6E9" p-id="25061"></path><path d="M899.192182 1024H164.505607c-9.58379 0-15.972298-6.388507-15.972298-15.972298v-153.326234c0-9.58379 6.388507-15.972298 15.972298-15.972297h734.686575c9.58379 0 15.972298 6.388507 15.972298 15.972297v153.326234c-0.002059 9.58379-7.988208 15.972298-15.972298 15.972298zM178.880263 992.057463h702.74198v-121.383697H178.880263v121.383697z" fill="#193651" p-id="25062"></path><path d="M210.8228 905.811586h638.856906v51.108058H210.8228z" fill="#FFFFFF" p-id="25063"></path><path d="M162.907966 739.708337h558.999535v113.397549H162.907966z" fill="#2EA2DB" p-id="25064"></path><path d="M721.907501 870.673766H162.907966c-9.58379 0-15.972298-6.388507-15.972298-15.972298v-113.397548c0-9.58379 6.388507-15.972298 15.972298-15.972298h558.999535c9.58379 0 15.972298 6.388507 15.972298 15.972298v113.397548c0 7.986149-6.388507 15.972298-15.972298 15.972298zM178.880263 838.731229h527.057v-81.455012h-527.057v81.455012z" fill="#193651" p-id="25065"></path><path d="M231.585963 757.276217h11.179373v81.455012h-11.179373zM257.139992 757.276217h27.151671v81.455012h-27.151671zM643.328656 755.839163h11.179373v81.455013h-11.179373zM602.123504 755.839163h27.151671v81.455013h-27.151671z" fill="#FFFFFF" p-id="25066"></path><path d="M162.907966 626.310788h558.999535V739.708337H162.907966z" fill="#F16051" p-id="25067"></path><path d="M721.907501 755.680635H162.907966c-9.58379 0-15.972298-6.388507-15.972298-15.972298v-113.397549c0-9.58379 6.388507-15.972298 15.972298-15.972297h558.999535c9.58379 0 15.972298 6.388507 15.972298 15.972297V739.708337c0 9.58379-6.388507 15.972298-15.972298 15.972298zM178.880263 723.736039h527.057v-81.455012h-527.057v81.455012z" fill="#193651" p-id="25068"></path><path d="M231.585963 642.283086h11.179373v81.455012h-11.179373zM257.139992 642.283086h27.151671v81.455012h-27.151671zM643.328656 643.559552h11.179373v81.455012h-11.179373zM602.123504 643.559552h27.151671v81.455012h-27.151671zM958.286389 781.234664h-188.461995c-27.151671 0-47.914834 20.763163-47.914834 47.914834v23.956388h284.291663v-23.956388c-0.002059-25.556088-20.765222-47.914834-47.914834-47.914834z" fill="#FFFFFF" p-id="25069"></path><path d="M958.286389 765.262366h-188.461995c-35.13782 0-63.885073 28.749312-63.885073 63.885073v23.956388c0 9.58379 6.388507 15.972298 15.972298 15.972297h284.291663c9.58379 0 15.972298-6.388507 15.972298-15.972297v-23.956388c-0.004118-35.135761-28.75343-63.885073-63.889191-63.885073z m31.942537 73.468863H737.879799v-7.986148c0-17.56788 14.374656-31.942537 31.942537-31.942537h188.461994c17.56788 0 31.942537 14.374656 31.942537 31.942537v7.986148z" fill="#193651" p-id="25070"></path><path d="M838.500333 797.204903c-7.986149-1.597642-12.777015-11.179373-11.179373-19.165522l87.84352-325.81799L584.553565 118.419311c-6.388507-6.388507-6.388507-15.972298 0-22.360805 6.388507-6.388507 15.972298-6.388507 22.360805 0l336.997363 340.190587c4.790866 4.790866 4.790866 9.58379 4.790866 15.972298l-91.036744 333.80208c-3.195283 7.988208-11.179373 12.779073-19.165522 11.181432zM309.845692 316.465096h31.942537v28.749312h-31.942537z" fill="#193651" p-id="25071"></path><path d="M367.581081 410.050654l-27.662257 15.970239-14.374657-24.895208 27.662258-15.970239z" fill="#193651" p-id="25072"></path><path d="M420.834426 454.269913l-15.976415 27.65814-24.895208-14.378774 15.976415-27.660199zM461.574285 465.000464h28.749312v31.942537h-28.749312z" fill="#193651" p-id="25073"></path><path d="M666.008577 84.879133l-68.677997 70.275639-239.570054 75.064446 218.80689 218.808948 76.664147-239.572112 68.675938-68.675938z" fill="#FDBF5E" p-id="25074"></path><path d="M576.567416 465.000464c-4.790866 0-7.986149-1.597642-11.179373-4.790866L346.579095 241.40065c-3.195283-3.195283-4.790866-9.58379-4.790866-14.374656 1.597642-4.790866 4.790866-9.58379 11.179373-11.179373l234.779187-73.468864 67.080356-68.677997c6.388507-6.388507 15.972298-6.388507 22.360805 0l55.900983 55.900983c3.195283 3.195283 4.790866 6.388507 4.790866 11.179373 0 4.790866-1.597642 7.986149-4.790866 11.179373l-67.080356 67.080356-73.468863 234.779187c-1.597642 4.790866-6.388507 9.58379-11.179373 11.179373l-4.792925 0.002059z m-188.461995-228.392739l182.073488 182.073488L637.259265 204.66313c0-3.195283 1.597642-4.790866 3.195283-6.388507l57.496566-57.496566-31.942537-31.942537-57.496565 57.496566c-1.597642 1.597642-4.790866 3.195283-6.388508 3.195283l-214.018083 67.080356z" fill="#193651" p-id="25075"></path><path d="M555.806312 222.235128l-105.4114 33.538119 100.618475 100.620534 33.540178-105.4114zM413.659451 287.717842c-28.749312 28.749312-28.749312 76.662088 0 105.4114 28.749312 28.749312 76.662088 28.749312 105.4114 0l-105.4114-105.4114z" fill="#FFFFFF" p-id="25076"></path><path d="M466.365151 431.460286c-23.956388 0-46.317193-9.58379-63.885073-27.151671s-27.151671-39.928685-27.151671-63.885073 9.58379-46.317193 27.151671-63.885073c6.388507-6.388507 15.972298-6.388507 22.360805 0l105.411399 105.4114c3.195283 3.195283 4.790866 6.388507 4.790866 11.179373 0 4.790866-1.597642 7.986149-4.790866 11.179373-17.569939 17.56788-39.928685 27.151671-63.887131 27.151671z m-51.108059-119.786056c-4.790866 7.986149-7.986149 19.165522-7.986149 28.749312 0 15.972298 6.388507 30.344895 17.567881 41.526327 19.165522 17.56788 47.914834 22.360805 70.27358 9.583791l-79.855312-79.85943z" fill="#193651" p-id="25077"></path><path d="M932.730301 447.430525m-46.317192 0a46.317193 46.317193 0 1 0 92.634385 0 46.317193 46.317193 0 1 0-92.634385 0Z" fill="#FFFFFF" p-id="25078"></path><path d="M932.730301 509.720015c-33.540178 0-62.28949-27.151671-62.28949-62.28949 0-33.540178 27.151671-62.28949 62.28949-62.28949 33.540178 0 62.28949 27.151671 62.28949 62.28949 0 33.540178-28.749312 62.28949-62.28949 62.28949z m0-92.634385c-15.972298 0-30.344895 12.777015-30.344895 30.344895 0 15.972298 12.777015 30.344895 30.344895 30.344895 15.972298 0 30.344895-12.777015 30.344895-30.344895 0.002059-15.970239-14.372597-30.344895-30.344895-30.344895z" fill="#193651" p-id="25079"></path></svg>